# xmcd
#
# Track frame offsets: 
#        150
#        20440
#        37438
#        55305
#        72458
#        93121
#        110458
#        128168
#        145472
#        165526
#        183702
#        200118
#        217502
#        236598
#        252629
#        264693
#
# Disc length: 3762 seconds
#
# Revision: 3
# Processed by: cddbd v1.5.2PL0 Copyright (c) Steve Scherf et al.
# Submitted via: ExactAudioCopy v1.0b3
#
DISCID=f80eb010
DTITLE=유승준 - 고지탈환(高地奪還)
DYEAR=2000
DGENRE=Hip-Hop
TTITLE0=BIG SHOTS:Summit Revival
TTITLE1=찾길 바래[I will be back]
TTITLE2=Forever
TTITLE3=Soul
TTITLE4=Baby be Mine
TTITLE5=단 한번 만이라도...
TTITLE6=길...[The Way]
TTITLE7=Tell Me
TTITLE8=어제 오늘 그리고...
TTITLE9=One Fine Day
TTITLE10=All For You
TTITLE11=지상에서 영원까지
TTITLE12=Like Always
TTITLE13=변한게 하나 없는데...
TTITLE14=Interlude
TTITLE15=Throw Your Hands Up [너의 기준]
EXTD=YEAR: 2001 ID3G:   7
EXTT0=
EXTT1=
EXTT2=
EXTT3=
EXTT4=
EXTT5=
EXTT6=
EXTT7=
EXTT8=
EXTT9=
EXTT10=
EXTT11=
EXTT12=
EXTT13=
EXTT14=
EXTT15=
PLAYORDER=
